<svg width="512" height="512" viewBox="0 0 512 512" fill="none" xmlns="http://www.w3.org/2000/svg">
<rect width="512" height="512" rx="50" fill="white"/>
<path d="M256 121C305.676 121 353.612 125.585 398.749 134.105C421.345 138.371 437 158.58 437 181.575V330.424C437 353.419 421.345 373.628 398.749 377.894C353.612 386.414 305.676 391 256 391C206.324 391 158.388 386.414 113.251 377.894C90.6545 373.628 75 353.419 75 330.424V181.575C75 158.58 90.6545 138.371 113.251 134.105C158.388 125.585 206.324 121 256 121Z" fill="#FF383C"/>
<path d="M301.434 239.279C311.24 246.928 311.762 261.576 302.525 269.904L259.012 309.133C246.395 320.508 226.238 311.968 225.633 294.991L222.951 219.729C222.346 202.752 241.844 192.799 255.239 203.247L301.434 239.279Z" fill="#D9D9D9"/>
<path d="M197.518 238.073C216.571 242.107 217.528 268.949 198.81 274.329V274.329C187.126 277.686 175.396 269.176 174.964 257.027V257.027C174.531 244.879 185.625 235.555 197.518 238.073V238.073Z" fill="#D9D9D9"/>
</svg>
